<svg width="70" height="70" viewBox="0 0 70 70" fill="none" xmlns="http://www.w3.org/2000/svg">
<rect width="70" height="70" rx="5" fill='none'/>
<path d="M35 23C28.383 23 23 28.383 23 35C23 41.617 28.383 47 35 47C41.617 47 47 41.617 47 35H44.3C44.3 40.128 40.128 44.3 35 44.3C29.872 44.3 25.7 40.128 25.7 35C25.7 29.872 29.872 25.7 35 25.7V23ZM42.4 25.583L34.895 34.954L31.388 32.08L29.386 34.516L34.127 38.404C34.2881 38.5369 34.474 38.6363 34.6739 38.6966C34.8738 38.7569 35.0837 38.7767 35.2913 38.755C35.499 38.7334 35.7003 38.6705 35.8834 38.5703C36.0665 38.47 36.2279 38.3343 36.358 38.171L44.862 27.554L42.4 25.583Z" fill="#0088FF"/>
</svg>
