<svg width="50" height="50" viewBox="0 0 50 50" fill="none" xmlns="http://www.w3.org/2000/svg">
<rect width="50" height="50" rx="5" fill='none'/>
<path d="M24.001 23H26.001V28H24.001V23ZM24 29H26V31H24V29Z" fill="#8D2929"/>
<path d="M26.7678 17.1999C26.4198 16.5449 25.7418 16.1379 24.9998 16.1379C24.2578 16.1379 23.5798 16.5449 23.2318 17.2009L15.8938 31.0639C15.7314 31.3685 15.6509 31.7101 15.6604 32.0551C15.6699 32.4001 15.7689 32.7368 15.9478 33.0319C16.1242 33.3286 16.3751 33.574 16.6756 33.7438C16.9761 33.9136 17.3157 34.0019 17.6608 33.9999H32.3388C33.0468 33.9999 33.6878 33.6379 34.0528 33.0319C34.2317 32.7368 34.3308 32.4001 34.3403 32.0551C34.3497 31.7101 34.2693 31.3685 34.1068 31.0639L26.7678 17.1999ZM17.6608 31.9999L24.9998 18.1369L32.3438 31.9999H17.6608Z" fill="#8D2929"/>
</svg>
