<svg width="70" height="70" viewBox="0 0 70 70" fill="none" xmlns="http://www.w3.org/2000/svg">
<rect width="70" height="70" rx="5" fill="#E2DAFA"/>
<path d="M42.903 31.586C42.8555 31.4775 42.7892 31.3783 42.707 31.293L36.707 25.293C36.6217 25.2108 36.5225 25.1445 36.414 25.097C36.384 25.083 36.352 25.075 36.32 25.064C36.2363 25.0356 36.1492 25.0185 36.061 25.013C36.04 25.011 36.021 25 36 25H29C27.897 25 27 25.897 27 27V43C27 44.103 27.897 45 29 45H41C42.103 45 43 44.103 43 43V32C43 31.979 42.989 31.96 42.987 31.938C42.9815 31.8498 42.9644 31.7627 42.936 31.679C42.9267 31.647 42.9157 31.616 42.903 31.586ZM39.586 31H37V28.414L39.586 31ZM29 43V27H35V32C35 32.2652 35.1054 32.5196 35.2929 32.7071C35.4804 32.8946 35.7348 33 36 33H41L41.002 43H29Z" fill="#6800BC"/>
<path d="M31 35H39V37H31V35ZM31 39H39V41H31V39ZM31 31H33V33H31V31Z" fill="#6800BC"/>
</svg>
