<svg width="70" height="70" viewBox="0 0 70 70" fill="none" xmlns="http://www.w3.org/2000/svg">
<rect width="70" height="70" rx="5" fill="#E1FFB5"/>
<g clip-path="url(#clip0_17_278)">
<path d="M43.7879 26.832C43.6869 26.727 43.5909 26.619 43.4869 26.515C43.3836 26.413 43.2769 26.3124 43.1669 26.213C40.9534 24.1406 38.0322 22.9914 34.9999 23C33.4234 22.996 31.8617 23.3045 30.4052 23.9077C28.9486 24.5108 27.626 25.3967 26.5139 26.514C21.9379 31.09 21.8399 38.47 26.2129 43.168C26.3109 43.276 26.4109 43.3827 26.5129 43.488C26.6169 43.591 26.7229 43.688 26.8299 43.788C29.0455 45.8591 31.9671 47.0077 34.9999 47C38.2059 47 41.2199 45.753 43.4869 43.488C48.0629 38.912 48.1599 31.532 43.7879 26.832ZM27.1329 27.133C28.1638 26.097 29.3899 25.2755 30.7402 24.7161C32.0905 24.1567 33.5383 23.8705 34.9999 23.874C37.8249 23.874 40.4899 24.922 42.5499 26.832L41.5489 27.834C39.7628 26.194 37.4247 25.2865 34.9999 25.292C33.7244 25.2883 32.4608 25.5378 31.2824 26.026C30.1039 26.5142 29.0341 27.2314 28.1349 28.136C27.2305 29.0352 26.5136 30.1049 26.0256 31.2832C25.5376 32.4614 25.2882 33.7248 25.2919 35C25.2919 37.448 26.1919 39.753 27.8339 41.549L26.8309 42.55C22.7989 38.191 22.8989 31.367 27.1329 27.133ZM40.9309 28.451V28.453L39.9159 29.467C38.5652 28.2558 36.8142 27.5869 34.9999 27.589C34.0265 27.5865 33.0622 27.777 32.1629 28.1497C31.2636 28.5224 30.4472 29.0697 29.7609 29.76C29.0703 30.4464 28.5227 31.2629 28.1498 32.1624C27.777 33.0619 27.5863 34.0264 27.5889 35C27.5862 36.8133 28.2549 38.5635 29.4659 39.913L28.4519 40.929C26.9759 39.3078 26.1607 37.1925 26.1669 35C26.1637 33.8397 26.3908 32.6902 26.835 31.6182C27.2793 30.5462 27.9318 29.573 28.7549 28.755C29.5729 27.932 30.546 27.2794 31.618 26.8352C32.69 26.3909 33.8395 26.1638 34.9999 26.167C37.2129 26.167 39.3009 26.976 40.9309 28.451ZM41.5369 35C41.5369 36.745 40.8559 38.387 39.6209 39.622C38.3859 40.857 36.7459 41.538 34.9999 41.538C33.4184 41.5383 31.891 40.962 30.7039 39.917L30.7029 39.913C30.5929 39.819 30.4829 39.725 30.3789 39.622C30.2773 39.517 30.1796 39.4082 30.0859 39.296C29.0389 38.1102 28.4626 36.5819 28.4659 35C28.4659 33.254 29.1449 31.613 30.3799 30.379C30.9855 29.7708 31.7055 29.2885 32.4985 28.96C33.2914 28.6315 34.1416 28.4633 34.9999 28.465C36.5989 28.465 38.1049 29.041 39.2949 30.085C39.4059 30.181 39.5189 30.275 39.6209 30.38C39.7236 30.4847 39.8219 30.5927 39.9159 30.704C40.9625 31.8902 41.539 33.4182 41.5369 35ZM30.0839 40.534C31.4342 41.7455 33.1858 42.4147 34.9999 42.413C35.9736 42.4158 36.9382 42.225 37.8376 41.8518C38.7369 41.4786 39.5532 40.9304 40.2389 40.239C40.9301 39.5532 41.4781 38.737 41.8511 37.8376C42.2241 36.9382 42.4148 35.9737 42.4119 35C42.4137 33.1862 41.7456 31.4356 40.5359 30.084L41.5489 29.072C43.0238 30.6935 43.8389 32.8081 43.8339 35C43.8371 36.1607 43.6099 37.3104 43.1655 38.3826C42.7211 39.4548 42.0683 40.4281 41.2449 41.246C40.4273 42.0696 39.4542 42.7224 38.3821 43.1667C37.31 43.611 36.1604 43.8378 34.9999 43.834C32.8073 43.8396 30.6919 43.0245 29.0699 41.549L30.0839 40.534ZM42.8669 42.867C41.8362 43.9034 40.6102 44.725 39.2598 45.2842C37.9094 45.8435 36.4615 46.1293 34.9999 46.125C32.1989 46.133 29.4997 45.0759 27.4489 43.168L28.4529 42.167C30.2385 43.808 32.5769 44.7156 35.0019 44.709C36.2776 44.7125 37.5412 44.4627 38.7197 43.9742C39.8981 43.4856 40.9678 42.7681 41.8669 41.863C42.7711 40.964 43.488 39.8944 43.976 38.7164C44.464 37.5383 44.7135 36.2752 44.7099 35C44.7159 32.5752 43.8079 30.2372 42.1669 28.452L43.1679 27.45C47.1989 31.809 47.1029 38.632 42.8669 42.867Z" fill="#7CBD1E"/>
</g>
<defs>
<clipPath id="clip0_17_278">
<rect width="23.9887" height="24.0001" fill="white" transform="translate(23.0059 23)"/>
</clipPath>
</defs>
</svg>
