<svg width="188" height="188" viewBox="0 0 188 188" fill="none" xmlns="http://www.w3.org/2000/svg">
<path d="M188 94C188 145.915 145.915 188 94 188C42.0852 188 0 145.915 0 94C0 42.0852 42.0852 0 94 0C145.915 0 188 42.0852 188 94ZM18.8 94C18.8 135.532 52.4682 169.2 94 169.2C135.532 169.2 169.2 135.532 169.2 94C169.2 52.4682 135.532 18.8 94 18.8C52.4682 18.8 18.8 52.4682 18.8 94Z" fill="#FDCFFA"/>
<path d="M10.0166 83.8043C4.86298 83.1787 0.128299 86.8539 0.0202403 92.0442C-0.336326 109.171 3.99535 126.136 12.6324 141.067C22.8443 158.721 38.5206 172.575 57.2962 180.538C76.0718 188.501 96.928 190.142 116.718 185.213C136.508 180.285 154.158 169.053 167.005 153.214C179.852 137.374 187.2 117.786 187.938 97.405C188.677 77.0238 182.767 56.9552 171.101 40.2273C159.434 23.4993 142.643 11.0194 123.262 4.67063C106.87 -0.699109 89.3761 -1.43649 72.6915 2.44691C67.6352 3.62379 65.0162 9.01501 66.692 13.9286C68.3677 18.8422 73.7053 21.4043 78.7895 20.3543C91.5798 17.7125 104.896 18.4373 117.41 22.5365C132.915 27.6155 146.347 37.5994 155.68 50.9818C165.014 64.3642 169.742 80.419 169.151 96.724C168.56 113.029 162.682 128.699 152.404 141.371C142.126 154.042 128.006 163.028 112.174 166.971C96.3424 170.914 79.6574 169.601 64.637 163.23C49.6165 156.86 37.0754 145.777 28.906 131.654C22.3125 120.255 18.8553 107.376 18.8006 94.3154C18.7788 89.1239 15.1703 84.43 10.0166 83.8043Z" fill="#4E56C0"/>
<path d="M81.4896 98.576C79.4736 98.576 77.6496 98.168 76.0176 97.352C74.3856 96.536 73.0816 95.432 72.1056 94.04C71.1456 92.632 70.6656 91.048 70.6656 89.288C70.6656 87.736 70.9296 86.424 71.4576 85.352C71.9856 84.264 72.6896 83.36 73.5696 82.64C74.4656 81.904 75.4496 81.328 76.5216 80.912C75.7376 80.528 75.0016 80.04 74.3136 79.448C73.6416 78.84 73.0896 78.088 72.6576 77.192C72.2416 76.28 72.0336 75.184 72.0336 73.904C72.0336 72.272 72.4496 70.848 73.2816 69.632C74.1296 68.4 75.2656 67.448 76.6896 66.776C78.1296 66.088 79.7216 65.744 81.4656 65.744C83.2256 65.744 84.8096 66.088 86.2176 66.776C87.6256 67.448 88.7376 68.4 89.5536 69.632C90.3856 70.848 90.8016 72.272 90.8016 73.904C90.8016 75.824 90.3696 77.32 89.5056 78.392C88.6416 79.464 87.6016 80.304 86.3856 80.912C87.4576 81.328 88.4336 81.904 89.3136 82.64C90.2096 83.36 90.9216 84.264 91.4496 85.352C91.9936 86.424 92.2656 87.736 92.2656 89.288C92.2656 91.048 91.7856 92.632 90.8256 94.04C89.8656 95.432 88.5696 96.536 86.9376 97.352C85.3216 98.168 83.5056 98.576 81.4896 98.576ZM81.4656 94.088C82.4896 94.088 83.4096 93.856 84.2256 93.392C85.0576 92.912 85.7216 92.264 86.2176 91.448C86.7136 90.616 86.9616 89.696 86.9616 88.688C86.9616 87.664 86.7136 86.744 86.2176 85.928C85.7216 85.112 85.0576 84.464 84.2256 83.984C83.4096 83.504 82.4896 83.264 81.4656 83.264C80.4416 83.264 79.5056 83.504 78.6576 83.984C77.8256 84.464 77.1616 85.112 76.6656 85.928C76.1856 86.744 75.9456 87.664 75.9456 88.688C75.9456 89.696 76.1856 90.608 76.6656 91.424C77.1616 92.24 77.8256 92.888 78.6576 93.368C79.5056 93.848 80.4416 94.088 81.4656 94.088ZM81.4896 79.256C82.3536 79.256 83.1376 79.04 83.8416 78.608C84.5616 78.176 85.1296 77.6 85.5456 76.88C85.9776 76.16 86.1936 75.368 86.1936 74.504C86.1936 73.64 85.9776 72.856 85.5456 72.152C85.1136 71.432 84.5376 70.864 83.8176 70.448C83.1136 70.016 82.3296 69.8 81.4656 69.8C80.6176 69.8 79.8256 70.016 79.0896 70.448C78.3696 70.864 77.7936 71.432 77.3616 72.152C76.9456 72.856 76.7376 73.64 76.7376 74.504C76.7376 75.368 76.9456 76.16 77.3616 76.88C77.7936 77.6 78.3696 78.176 79.0896 78.608C79.8256 79.04 80.6256 79.256 81.4896 79.256ZM97.7739 66.32H118.942V69.848L102.934 98H97.3179L113.014 70.808H97.7739V66.32Z" fill="black"/>
<path d="M65.3253 116.192C64.648 116.192 64.0453 116.04 63.5173 115.736C62.9946 115.432 62.584 115.021 62.2853 114.504C61.9866 113.981 61.8373 113.392 61.8373 112.736C61.8373 112.08 61.9866 111.488 62.2853 110.96C62.584 110.432 62.9946 110.013 63.5173 109.704C64.0453 109.395 64.648 109.24 65.3253 109.24C65.9973 109.24 66.592 109.395 67.1093 109.704C67.632 110.013 68.04 110.432 68.3333 110.96C68.6266 111.488 68.7733 112.08 68.7733 112.736C68.7733 113.392 68.6266 113.981 68.3333 114.504C68.04 115.021 67.632 115.432 67.1093 115.736C66.592 116.04 65.9973 116.192 65.3253 116.192ZM65.3253 115C65.752 115 66.1226 114.901 66.4373 114.704C66.7573 114.507 67.0053 114.237 67.1813 113.896C67.3573 113.549 67.4453 113.16 67.4453 112.728C67.4453 112.296 67.3573 111.907 67.1813 111.56C67.0053 111.213 66.7573 110.939 66.4373 110.736C66.1226 110.533 65.752 110.432 65.3253 110.432C64.8933 110.432 64.5173 110.533 64.1973 110.736C63.8773 110.939 63.6266 111.213 63.4453 111.56C63.2693 111.907 63.1813 112.296 63.1813 112.728C63.1813 113.16 63.2693 113.549 63.4453 113.896C63.6266 114.237 63.8773 114.507 64.1973 114.704C64.5173 114.901 64.8933 115 65.3253 115ZM71.6206 112.744C71.6206 113.432 71.7672 113.981 72.0606 114.392C72.3592 114.797 72.8152 115 73.4286 115C74.0472 115 74.5032 114.797 74.7966 114.392C75.0899 113.981 75.2366 113.432 75.2366 112.744V109.432H76.6126V112.936C76.6126 113.576 76.4872 114.141 76.2366 114.632C75.9912 115.123 75.6312 115.507 75.1566 115.784C74.6872 116.056 74.1112 116.192 73.4286 116.192C72.7512 116.192 72.1752 116.056 71.7006 115.784C71.2312 115.507 70.8712 115.123 70.6206 114.632C70.3752 114.141 70.2526 113.576 70.2526 112.936V109.432H71.6206V112.744ZM77.8816 109.432H79.1696V106.736H80.5536V109.432H82.2416V110.624H80.5536V113.872C80.5536 114.256 80.6202 114.539 80.7536 114.72C80.8922 114.901 81.0762 114.992 81.3056 114.992C81.5082 114.992 81.6656 114.955 81.7776 114.88C81.8896 114.805 81.9562 114.755 81.9776 114.728L82.5296 115.752C82.4976 115.779 82.4122 115.829 82.2736 115.904C82.1349 115.979 81.9562 116.045 81.7376 116.104C81.5189 116.163 81.2629 116.192 80.9696 116.192C80.4576 116.192 80.0282 116.037 79.6816 115.728C79.3402 115.413 79.1696 114.917 79.1696 114.24V110.624H77.8816V109.432ZM90.7628 116.192C90.0855 116.192 89.4828 116.04 88.9548 115.736C88.4321 115.432 88.0215 115.021 87.7228 114.504C87.4241 113.981 87.2748 113.392 87.2748 112.736C87.2748 112.08 87.4241 111.488 87.7228 110.96C88.0215 110.432 88.4321 110.013 88.9548 109.704C89.4828 109.395 90.0855 109.24 90.7628 109.24C91.4348 109.24 92.0295 109.395 92.5468 109.704C93.0695 110.013 93.4775 110.432 93.7708 110.96C94.0641 111.488 94.2108 112.08 94.2108 112.736C94.2108 113.392 94.0641 113.981 93.7708 114.504C93.4775 115.021 93.0695 115.432 92.5468 115.736C92.0295 116.04 91.4348 116.192 90.7628 116.192ZM90.7628 115C91.1895 115 91.5601 114.901 91.8748 114.704C92.1948 114.507 92.4428 114.237 92.6188 113.896C92.7948 113.549 92.8828 113.16 92.8828 112.728C92.8828 112.296 92.7948 111.907 92.6188 111.56C92.4428 111.213 92.1948 110.939 91.8748 110.736C91.5601 110.533 91.1895 110.432 90.7628 110.432C90.3308 110.432 89.9548 110.533 89.6348 110.736C89.3148 110.939 89.0641 111.213 88.8828 111.56C88.7068 111.907 88.6188 112.296 88.6188 112.728C88.6188 113.16 88.7068 113.549 88.8828 113.896C89.0641 114.237 89.3148 114.507 89.6348 114.704C89.9548 114.901 90.3308 115 90.7628 115ZM95.0756 109.432H96.4196V107.568C96.4196 106.901 96.5342 106.365 96.7636 105.96C96.9982 105.555 97.2942 105.261 97.6516 105.08C98.0142 104.893 98.3849 104.8 98.7636 104.8C99.2222 104.8 99.5742 104.864 99.8196 104.992C100.07 105.12 100.22 105.205 100.268 105.248L99.7076 106.312C99.6809 106.28 99.5982 106.221 99.4596 106.136C99.3209 106.051 99.1316 106.008 98.8916 106.008C98.7156 106.008 98.5449 106.051 98.3796 106.136C98.2142 106.221 98.0756 106.387 97.9636 106.632C97.8516 106.877 97.7956 107.243 97.7956 107.728V109.432H99.6676V110.624H97.7956V116H96.4196V110.624H95.0756V109.432ZM106.278 107.144L104.446 108.184V106.84L106.87 105.44H107.654V116H106.278V107.144ZM109.489 110.728C109.489 109.789 109.601 108.976 109.825 108.288C110.054 107.6 110.358 107.032 110.737 106.584C111.121 106.131 111.548 105.795 112.017 105.576C112.492 105.357 112.98 105.248 113.481 105.248C113.982 105.248 114.47 105.357 114.945 105.576C115.42 105.795 115.844 106.131 116.217 106.584C116.596 107.032 116.894 107.6 117.113 108.288C117.337 108.976 117.449 109.789 117.449 110.728C117.449 111.683 117.337 112.507 117.113 113.2C116.894 113.888 116.596 114.453 116.217 114.896C115.844 115.333 115.42 115.659 114.945 115.872C114.47 116.085 113.982 116.192 113.481 116.192C112.98 116.192 112.492 116.085 112.017 115.872C111.548 115.659 111.121 115.333 110.737 114.896C110.358 114.453 110.054 113.888 109.825 113.2C109.601 112.507 109.489 111.683 109.489 110.728ZM110.889 110.728C110.889 111.672 111.006 112.459 111.241 113.088C111.476 113.712 111.788 114.179 112.177 114.488C112.572 114.797 113.006 114.952 113.481 114.952C113.956 114.952 114.388 114.797 114.777 114.488C115.166 114.179 115.478 113.712 115.713 113.088C115.948 112.459 116.065 111.672 116.065 110.728C116.065 109.795 115.948 109.016 115.713 108.392C115.478 107.763 115.166 107.288 114.777 106.968C114.388 106.648 113.956 106.488 113.481 106.488C113.006 106.488 112.572 106.648 112.177 106.968C111.788 107.288 111.476 107.763 111.241 108.392C111.006 109.016 110.889 109.795 110.889 110.728ZM118.786 110.728C118.786 109.789 118.898 108.976 119.122 108.288C119.351 107.6 119.655 107.032 120.034 106.584C120.418 106.131 120.844 105.795 121.314 105.576C121.788 105.357 122.276 105.248 122.778 105.248C123.279 105.248 123.767 105.357 124.242 105.576C124.716 105.795 125.14 106.131 125.514 106.584C125.892 107.032 126.191 107.6 126.41 108.288C126.634 108.976 126.746 109.789 126.746 110.728C126.746 111.683 126.634 112.507 126.41 113.2C126.191 113.888 125.892 114.453 125.514 114.896C125.14 115.333 124.716 115.659 124.242 115.872C123.767 116.085 123.279 116.192 122.778 116.192C122.276 116.192 121.788 116.085 121.314 115.872C120.844 115.659 120.418 115.333 120.034 114.896C119.655 114.453 119.351 113.888 119.122 113.2C118.898 112.507 118.786 111.683 118.786 110.728ZM120.186 110.728C120.186 111.672 120.303 112.459 120.538 113.088C120.772 113.712 121.084 114.179 121.474 114.488C121.868 114.797 122.303 114.952 122.778 114.952C123.252 114.952 123.684 114.797 124.074 114.488C124.463 114.179 124.775 113.712 125.01 113.088C125.244 112.459 125.362 111.672 125.362 110.728C125.362 109.795 125.244 109.016 125.01 108.392C124.775 107.763 124.463 107.288 124.074 106.968C123.684 106.648 123.252 106.488 122.778 106.488C122.303 106.488 121.868 106.648 121.474 106.968C121.084 107.288 120.772 107.763 120.538 108.392C120.303 109.016 120.186 109.795 120.186 110.728Z" fill="black"/>
</svg>